<svg width="12" height="12" viewBox="0 0 12 12" fill="none" xmlns="http://www.w3.org/2000/svg">
<path d="M10.6606 5.75017C10.6128 4.83195 10.2934 3.94861 9.74299 3.21209C9.57529 3.3927 9.39602 3.56223 9.20633 3.71959C8.62353 4.20366 7.97228 4.59878 7.27374 4.89209C7.37116 5.09625 7.46041 5.294 7.53916 5.48067V5.48242C7.56138 5.53458 7.58277 5.58709 7.60333 5.63992C8.48649 5.54075 9.41749 5.57692 10.3199 5.69884C10.4401 5.71517 10.5532 5.73267 10.6606 5.75017ZM5.18599 1.40434C5.75447 2.20535 6.2787 3.03688 6.75633 3.89517C7.46974 3.614 8.05949 3.25934 8.53433 2.86442C8.69915 2.72858 8.8543 2.58142 8.99866 2.424C8.15923 1.71801 7.09717 1.33161 6.00033 1.33317C5.72735 1.33298 5.45487 1.3566 5.18599 1.40375V1.40434ZM1.48124 4.83142C1.87862 4.82139 2.27553 4.79746 2.67124 4.75967C3.6277 4.67412 4.57599 4.5138 5.50741 4.28017C5.02062 3.43446 4.49506 2.61167 3.93241 1.81442C3.33141 2.11215 2.80148 2.53566 2.37855 3.05621C1.95563 3.57677 1.6496 4.18219 1.48124 4.83142ZM2.37374 8.93692C2.60008 8.60617 2.89758 8.234 3.29249 7.82917C4.14066 6.96 5.14166 6.28334 6.30016 5.91L6.33633 5.8995C6.24008 5.68717 6.14966 5.49759 6.05866 5.31909C4.98766 5.63117 3.85949 5.826 2.73541 5.92692C2.18708 5.9765 1.69533 5.99809 1.33366 6.00159C1.33263 7.0706 1.70016 8.10729 2.37433 8.93692H2.37374ZM7.75324 10.3253C7.52829 9.19082 7.20987 8.07694 6.80124 6.995C5.63341 7.41909 4.70299 8.03917 3.98374 8.77884C3.69348 9.07189 3.43589 9.3956 3.21549 9.74426C4.0198 10.3444 4.9968 10.6679 6.00033 10.6665C6.60111 10.6674 7.19637 10.5519 7.75324 10.3264V10.3253ZM8.84583 9.69817C9.75657 8.99803 10.377 7.9865 10.5882 6.85734C10.3899 6.80775 10.1385 6.75817 9.86199 6.71967C9.24724 6.63115 8.62345 6.62467 8.00699 6.70042C8.35411 7.67974 8.63437 8.68148 8.84583 9.69875V9.69817ZM6.00033 11.8332C2.77858 11.8332 0.166992 9.22159 0.166992 5.99984C0.166992 2.77809 2.77858 0.166504 6.00033 0.166504C9.22208 0.166504 11.8337 2.77809 11.8337 5.99984C11.8337 9.22159 9.22208 11.8332 6.00033 11.8332Z" fill="#2B2B2B"/>
</svg>
