<svg width="12" height="12" viewBox="0 0 12 12" fill="none" xmlns="http://www.w3.org/2000/svg">
<path d="M6.00033 0.166504C7.58524 0.166504 7.78299 0.172337 8.40483 0.201504C9.02608 0.230671 9.44899 0.328087 9.82116 0.472754C10.2062 0.620921 10.5305 0.821587 10.8548 1.14534C11.1514 1.43694 11.381 1.78968 11.5274 2.179C11.6715 2.55059 11.7695 2.97409 11.7987 3.59534C11.8261 4.21717 11.8337 4.41492 11.8337 5.99984C11.8337 7.58475 11.8278 7.7825 11.7987 8.40434C11.7695 9.02559 11.6715 9.4485 11.5274 9.82067C11.3814 10.2102 11.1518 10.563 10.8548 10.8543C10.5631 11.1509 10.2104 11.3804 9.82116 11.5269C9.44958 11.671 9.02608 11.769 8.40483 11.7982C7.78299 11.8256 7.58524 11.8332 6.00033 11.8332C4.41541 11.8332 4.21766 11.8273 3.59583 11.7982C2.97458 11.769 2.55166 11.671 2.17949 11.5269C1.79002 11.3808 1.43722 11.1512 1.14583 10.8543C0.849146 10.5628 0.619619 10.21 0.473242 9.82067C0.328576 9.44909 0.231159 9.02559 0.201992 8.40434C0.174575 7.7825 0.166992 7.58475 0.166992 5.99984C0.166992 4.41492 0.172825 4.21717 0.201992 3.59534C0.231159 2.9735 0.328576 2.55117 0.473242 2.179C0.619213 1.78944 0.848794 1.43661 1.14583 1.14534C1.4373 0.848555 1.79008 0.619013 2.17949 0.472754C2.55166 0.328087 2.97399 0.230671 3.59583 0.201504C4.21766 0.174087 4.41541 0.166504 6.00033 0.166504ZM6.00033 3.08317C5.22678 3.08317 4.48491 3.39046 3.93793 3.93744C3.39095 4.48442 3.08366 5.22629 3.08366 5.99984C3.08366 6.77339 3.39095 7.51525 3.93793 8.06223C4.48491 8.60921 5.22678 8.9165 6.00033 8.9165C6.77387 8.9165 7.51574 8.60921 8.06272 8.06223C8.6097 7.51525 8.91699 6.77339 8.91699 5.99984C8.91699 5.22629 8.6097 4.48442 8.06272 3.93744C7.51574 3.39046 6.77387 3.08317 6.00033 3.08317ZM9.79199 2.93734C9.79199 2.74395 9.71517 2.55848 9.57843 2.42174C9.44168 2.28499 9.25621 2.20817 9.06283 2.20817C8.86944 2.20817 8.68397 2.28499 8.54723 2.42174C8.41048 2.55848 8.33366 2.74395 8.33366 2.93734C8.33366 3.13072 8.41048 3.31619 8.54723 3.45294C8.68397 3.58968 8.86944 3.6665 9.06283 3.6665C9.25621 3.6665 9.44168 3.58968 9.57843 3.45294C9.71517 3.31619 9.79199 3.13072 9.79199 2.93734ZM6.00033 4.24984C6.46445 4.24984 6.90957 4.43421 7.23776 4.7624C7.56595 5.09059 7.75033 5.53571 7.75033 5.99984C7.75033 6.46397 7.56595 6.90909 7.23776 7.23727C6.90957 7.56546 6.46445 7.74984 6.00033 7.74984C5.5362 7.74984 5.09108 7.56546 4.76289 7.23727C4.4347 6.90909 4.25033 6.46397 4.25033 5.99984C4.25033 5.53571 4.4347 5.09059 4.76289 4.7624C5.09108 4.43421 5.5362 4.24984 6.00033 4.24984Z" fill="#1B1B1B"/>
</svg>
