<svg width="12" height="10" viewBox="0 0 12 10" fill="none" xmlns="http://www.w3.org/2000/svg">
<path d="M11.9282 1.29953C11.4828 1.49652 11.0106 1.62589 10.527 1.68337C11.0367 1.37854 11.4182 0.898793 11.6003 0.333535C11.122 0.618201 10.5976 0.817701 10.051 0.925618C9.68386 0.532789 9.19721 0.272263 8.66673 0.184542C8.13624 0.0968217 7.59163 0.186821 7.11757 0.440549C6.64351 0.694277 6.26656 1.09752 6.04532 1.58758C5.82408 2.07764 5.77094 2.62707 5.89417 3.15045C4.92415 3.10183 3.9752 2.84976 3.10892 2.41059C2.24264 1.97142 1.47841 1.35498 0.865836 0.601285C0.649005 0.973714 0.53506 1.39708 0.535669 1.82803C0.535669 2.67387 0.966169 3.42112 1.62067 3.85862C1.23334 3.84642 0.854538 3.74182 0.515836 3.55354V3.58387C0.515953 4.14719 0.710885 4.69314 1.06758 5.12915C1.42428 5.56516 1.92078 5.8644 2.47292 5.97612C2.11336 6.07356 1.73635 6.08792 1.37042 6.01812C1.52609 6.503 1.82951 6.92707 2.23818 7.23093C2.64686 7.5348 3.14033 7.70325 3.6495 7.7127C3.14345 8.11014 2.56402 8.40394 1.94435 8.5773C1.32468 8.75066 0.67691 8.80018 0.0380859 8.72303C1.15324 9.4402 2.45139 9.82094 3.77725 9.8197C8.26484 9.8197 10.7189 6.10212 10.7189 2.87804C10.7189 2.77304 10.716 2.66687 10.7113 2.56303C11.189 2.2178 11.6013 1.79013 11.9288 1.30012L11.9282 1.29953Z" fill="#1B1B1B"/>
</svg>
